<svg width="112" height="40" viewBox="0 0 112 40" fill="none" xmlns="http://www.w3.org/2000/svg">
<path d="M14.8693 6L21.375 27.3068H21.6165L28.1222 6H35.5625L26.1761 35.0909H16.8153L7 6H14.8693Z" fill="#FF004F"/>
<path d="M42.0185 35.0909H37.4844L43.3736 17.6364H48.9901L54.8793 35.0909H50.3452L46.2457 22.0341H46.1094L42.0185 35.0909ZM41.4134 28.2216H50.8906V31.4261H41.4134V28.2216Z" fill="white"/>
<path d="M56.7585 35.0909V17.6364H63.9688C65.2756 17.6364 66.4034 17.8722 67.3523 18.3438C68.3068 18.8097 69.0426 19.4801 69.5597 20.3551C70.0767 21.2244 70.3352 22.2557 70.3352 23.4489C70.3352 24.6591 70.071 25.6875 69.5426 26.5341C69.0142 27.375 68.2642 28.017 67.2926 28.4602C66.321 28.8977 65.1705 29.1165 63.8409 29.1165H59.2812V25.7926H63.0568C63.6932 25.7926 64.2244 25.7102 64.6506 25.5455C65.0824 25.375 65.4091 25.1193 65.6307 24.7784C65.8523 24.4318 65.9631 23.9886 65.9631 23.4489C65.9631 22.9091 65.8523 22.4631 65.6307 22.1108C65.4091 21.7528 65.0824 21.4858 64.6506 21.3097C64.2188 21.1278 63.6875 21.0369 63.0568 21.0369H60.9773V35.0909H56.7585ZM66.5852 27.1136L70.9318 35.0909H66.3295L62.0682 27.1136H66.5852Z" fill="white"/>
<path d="M83.2088 17.6364H87.419V28.8949C87.419 30.196 87.1094 31.3295 86.4901 32.2955C85.8707 33.2557 85.0071 34 83.8991 34.5284C82.7912 35.0511 81.5043 35.3125 80.0384 35.3125C78.5554 35.3125 77.2599 35.0511 76.152 34.5284C75.044 34 74.1832 33.2557 73.5696 32.2955C72.956 31.3295 72.6491 30.196 72.6491 28.8949V17.6364H76.8679V28.5284C76.8679 29.1307 76.9986 29.6676 77.2599 30.1392C77.527 30.6108 77.8991 30.9801 78.3764 31.2472C78.8537 31.5142 79.4077 31.6477 80.0384 31.6477C80.669 31.6477 81.2202 31.5142 81.6918 31.2472C82.169 30.9801 82.5412 30.6108 82.8082 30.1392C83.0753 29.6676 83.2088 29.1307 83.2088 28.5284V17.6364Z" fill="white"/>
<path d="M104.918 17.6364V35.0909H101.339L94.3928 25.017H94.282V30.054V35.0909H90.0632V17.6364H93.6939L100.563 27.6932H100.708V17.6364H104.918Z" fill="white"/>
<path d="M28 6H103.5L105 11H26.5L28 6Z" fill="#FF004F"/>
<path d="M41.6513 27.893L41.7042 27.9459" stroke="white" stroke-width="3" stroke-linecap="round"/>
<path d="M41.9689 28.4753H42.0218" stroke="white" stroke-width="3" stroke-linecap="round"/>
<path d="M50.1737 27.6813C50.3547 28.4956 50.6326 29.1999 50.7296 30.0339C50.7664 30.351 50.8028 30.6982 50.809 31.0161C50.8112 31.1341 50.7333 31.4563 50.5855 31.2279C50.4164 30.9666 50.2298 30.8347 50.1708 30.5103C50.1058 30.1527 50.0002 29.7585 49.8444 29.4281C49.7374 29.2012 49.6462 29.036 49.5179 28.8223C49.4528 28.7138 49.4646 28.5644 49.3533 28.4753C48.9886 28.1835 49.5495 29.121 49.6444 29.2693C49.763 29.4546 49.7503 29.6099 49.7503 29.8222C49.7503 29.995 49.8535 30.0364 49.9326 30.1721C50.0647 30.3986 49.8479 30.6428 50.1737 30.7514" stroke="white" stroke-width="2" stroke-linecap="round"/>
<path d="M49.4856 30.328C49.3588 30.3026 49.1573 30.0725 49.1151 29.9574C49.0347 29.7387 49.0092 29.612 49.0092 29.3752" stroke="white" stroke-width="2" stroke-linecap="round"/>
<path d="M49.5583 31.0735C49.5708 31.0749 49.6773 31.0924 49.6773 31.1005C49.6773 31.1124 49.6596 31.0841 49.6543 31.0735" stroke="white" stroke-linecap="round"/>
<path d="M48.7724 28.3413C48.7984 28.4487 48.7523 28.4933 48.6494 28.519" stroke="white" stroke-linecap="round"/>
<path d="M42.7856 30.9247C42.8951 31.0463 42.4686 31.04 42.4303 31.0386C42.0844 31.0253 41.979 30.7395 41.7795 30.5085C41.7463 30.4701 41.6907 30.4319 41.6739 30.3825C41.6418 30.2876 41.7055 30.1903 41.7658 30.1243C41.924 29.9511 42.1412 29.8506 42.3528 29.7598C42.698 29.6117 43.0624 29.5139 43.3513 29.2609C43.473 29.1544 43.6654 28.9666 43.7128 28.8007C43.7296 28.7419 43.6766 28.6897 43.6741 28.6344C43.6705 28.5563 43.6646 28.7912 43.6475 28.8676C43.5844 29.1487 43.4438 29.4155 43.324 29.6755C43.2438 29.8497 43.1844 30.0493 43.0362 30.179C42.9782 30.2297 42.9227 30.2854 42.8509 30.3164C42.6386 30.4082 42.4004 30.4224 42.1842 30.5032C41.9624 30.5861 41.7796 30.7159 41.617 30.8829C41.5349 30.9672 41.3295 31.2122 41.4218 31.3317C41.4936 31.4244 41.7052 31.2623 41.7673 31.2238C41.8709 31.1598 41.9863 31.108 42.0961 31.0553C42.1891 31.0106 42.2864 30.9735 42.3695 30.911C42.4369 30.8603 42.4978 30.8106 42.573 30.7713C42.7307 30.6889 42.8697 30.6424 43.0499 30.6247C43.0853 30.6212 43.1866 30.5861 43.1532 30.5981C43.0895 30.621 43.0562 30.7036 43.0074 30.747C42.9366 30.8099 42.9034 30.8709 42.9086 30.9657C42.9093 30.9783 42.9165 30.9793 42.9276 30.9793C42.9417 30.9793 42.8999 30.9682 42.8919 30.9565C42.7941 30.8121 42.8726 30.5301 42.9018 30.3817C42.9653 30.0597 43.0488 29.7435 43.0992 29.4188C43.1323 29.2062 43.166 28.9973 43.2299 28.7931C43.2506 28.7267 43.243 28.6538 43.264 28.5874C43.2749 28.553 43.2909 28.5205 43.3043 28.4871C43.3348 28.4107 43.3562 28.6445 43.3658 28.7263C43.3727 28.7857 43.3866 28.9398 43.3969 29.002C43.4287 29.1938 43.62 29.2521 43.7849 29.3224C44.7521 29.7345 45.8458 30.0732 46.9089 30.0119C47.3131 29.9886 47.7418 29.9105 48.095 29.7036C48.247 29.6146 48.3804 29.5342 48.3882 29.3482C48.3955 29.1709 48.3883 29.0087 48.4747 28.8531C48.497 28.813 48.5697 28.7815 48.6015 28.743C48.6456 28.6896 48.6565 28.5846 48.6463 28.5175C48.6414 28.485 48.6352 28.4418 48.6243 28.5167C48.5478 29.0435 48.3888 29.5868 47.8764 29.8441C47.7364 29.9144 47.6468 29.9265 47.4906 29.9443C46.9957 30.0008 46.4929 30.0023 45.9962 30.0286C45.3242 30.0642 44.6493 30.0982 43.9862 30.2207C43.8076 30.2537 43.5229 30.2963 43.3703 30.4311C43.2591 30.5293 43.1916 30.67 43.0727 30.7652C43.023 30.8049 42.9688 30.8265 42.9443 30.889C42.9334 30.917 42.9649 31.0379 42.936 30.9657" stroke="white" stroke-linecap="round"/>
<path d="M43.6741 29.1068C43.6589 28.9748 43.6616 28.7892 43.7432 28.6777C43.7736 28.6362 43.8143 28.6104 43.8244 28.56" stroke="white" stroke-linecap="round"/>
<path d="M58.8991 26.2102C59.1825 26.1547 59.5721 26.19 59.8199 26.3534C59.9038 26.4088 59.9298 26.429 60.0271 26.4455C60.2165 26.4777 60.4075 26.5236 60.5988 26.4481C60.6809 26.4157 60.7282 26.3333 60.7395 26.2486C60.7494 26.1739 60.5758 26.1876 60.5361 26.1872C60.4048 26.1859 60.2735 26.1872 60.1422 26.1872C60.0312 26.1872 59.9084 26.1582 59.7995 26.1706C59.3591 26.2204 59.1763 26.99 59.1076 27.319C59.0412 27.6369 59.0103 27.9812 59.0551 28.3051C59.0599 28.3395 59.1011 28.4207 59.1165 28.3895C59.1483 28.3254 59.2205 28.0007 59.2239 27.9853C59.2922 27.6794 59.3311 27.3616 59.4145 27.0594C59.4708 26.8554 59.4039 27.4829 59.3851 27.6938C59.3527 28.0565 59.2968 28.4219 59.2802 28.786C59.2777 28.8412 59.3242 28.6845 59.3429 28.6325C59.4386 28.3657 59.5038 28.2119 59.6306 27.9457C59.6432 27.9193 59.926 27.2367 60.0552 27.2512C60.0898 27.2551 60.0863 27.3151 60.0898 27.3497C60.1046 27.499 60.0718 27.7896 60.0591 27.9201C60.0431 28.0846 59.9724 28.5691 60.0322 28.4151C60.1545 28.1005 60.1891 27.7415 60.3596 27.4456C60.4284 27.3264 60.445 27.4917 60.4504 27.5275C60.4559 27.5632 60.4615 27.6709 60.4645 27.6349C60.4755 27.5034 60.4875 27.3705 60.4875 27.2385C60.4875 27.07 60.6791 27.3544 60.7037 27.397C60.7718 27.5155 60.7407 27.6885 60.7407 27.8191C60.7407 27.9657 60.7433 28.1125 60.7407 28.259C60.7383 28.3998 60.6366 28.4835 60.5681 28.5941C60.4762 28.7426 60.3383 28.7091 60.1883 28.7425C60.0155 28.7809 59.5059 28.9261 59.6716 28.864C59.8957 28.7799 60.0253 28.6329 60.2752 28.6274C60.367 28.6253 60.4393 28.6341 60.5105 28.6952C60.5393 28.7198 60.6179 28.7464 60.5796 28.7655" stroke="white" stroke-linecap="round"/>
<path d="M61.2012 27.108C61.0082 27.0967 60.8163 27.0445 60.6256 27.0159" stroke="white" stroke-linecap="round"/>
<path d="M64.2629 28.4662C64.06 28.3607 63.8869 28.1895 63.7053 28.0519C63.5246 27.9149 63.3244 27.8177 63.1272 27.7078C62.9738 27.6223 62.8239 27.5316 62.6694 27.4482C62.6074 27.4148 62.5358 27.3846 62.4801 27.3408C62.3711 27.2551 62.738 27.2307 62.8753 27.2116C63.5451 27.1183 64.2434 27.074 64.9203 27.0901C65.2734 27.0985 65.6192 27.1765 65.9715 27.195C66.1045 27.2019 66.2377 27.2034 66.3706 27.2129C66.4185 27.2163 66.5801 27.2088 66.6187 27.2615C66.6456 27.2982 66.634 27.3635 66.634 27.4073" stroke="white" stroke-linecap="round"/>
<path d="M66.565 27.4533C66.5363 27.6396 66.5037 27.8396 66.4038 28.0033C66.3464 28.0974 66.2466 28.1656 66.1659 28.2386C66.1015 28.2968 65.8016 28.8451 65.7298 28.6939C65.6077 28.4365 65.5996 28.1391 65.506 27.8728C65.4664 27.7602 65.3117 27.707 65.208 27.6797C64.8384 27.5821 64.5378 28.0291 64.1452 27.8958C64.0802 27.8737 64.0761 28.0753 64.0583 28.1171C64.006 28.2397 63.9102 28.3017 63.7795 28.3051C63.6823 28.3076 63.5809 28.2929 63.4866 28.2705C63.4662 28.2657 63.4139 28.2414 63.4342 28.236C63.5658 28.201 63.7341 28.2159 63.8664 28.2143C64.1324 28.211 64.3535 28.2393 64.6082 28.3128C64.7386 28.3504 64.8924 28.3819 64.9612 28.5123C64.9933 28.5731 65.0808 28.817 64.9996 28.8576" stroke="white" stroke-linecap="round"/>
<path d="M65.3909 29.1338C65.0106 29.2368 64.5029 29.0675 64.1478 28.9369C64.012 28.8869 63.8811 28.8241 63.7462 28.7719C63.6999 28.754 63.6351 28.7426 63.5966 28.7079C63.5282 28.6464 63.4609 28.6249 63.4111 28.543C63.3359 28.419 63.324 28.3294 63.204 28.236C63.1325 28.1804 63.0364 28.1892 62.9507 28.1721C62.8771 28.1574 62.817 28.1336 62.7448 28.112C62.6371 28.0796 62.6498 28.1664 62.7001 28.2335C62.7408 28.2878 62.7866 28.2981 62.8305 28.3332C62.9166 28.4021 63.0461 28.4464 63.1554 28.4662C63.2263 28.4791 63.3783 28.5771 63.4342 28.6274C63.4924 28.6798 63.5032 28.6862 63.5032 28.7655" stroke="white" stroke-linecap="round"/>
<path d="M66.5499 27.9842C66.4523 28.0493 66.2475 28.6729 66.5129 28.6066C66.7297 28.5524 66.6111 28.3291 66.8632 28.2976" stroke="white" stroke-linecap="round"/>
</svg>
